<svg xmlns="http://www.w3.org/2000/svg" viewBox="0 0 24 24">
  <path fill="currentColor" fill-rule="evenodd" d="M12 1 A 11 11 0 1 0 12 23 A 11 11 0 1 0 12 1 Z M 12.2 4.5 C 17.2 4.6 21.1 7.9 21.1 12 C 21.1 16.1 17.2 19.4 12.2 19.5 C 9.9 19.4 7.0 19.0 6.9 17.2 C 6.85 16.2 8.45 15.9 8.4 14.7 C 8.35 13.6 5.3 13.5 5.3 12 C 5.3 10.5 8.35 10.4 8.4 9.3 C 8.38 8.4 6.95 7.8 6.9 6.9 C 6.85 5.9 9.0 4.6 12.2 4.5 Z"/>
  <circle fill="currentColor" cx="11.4" cy="12" r="2.5"/>
  <circle fill="currentColor" cx="16.1" cy="12" r="1.55"/>
  <circle fill="currentColor" cx="19.2" cy="12" r="0.9"/>
</svg>
